<mxfile host="app.diagrams.net" agent="Mozilla/5.0 (Windows NT 10.0; Win64; x64) AppleWebKit/537.36 (KHTML, like Gecko) Chrome/131.0.0.0 Safari/537.36" version="26.0.4">
  <diagram name="第 1 页" id="9pHyuFNVM82c7jbrzFcz">
    <mxGraphModel dx="1434" dy="738" grid="1" gridSize="10" guides="1" tooltips="1" connect="1" arrows="1" fold="1" page="1" pageScale="1" pageWidth="827" pageHeight="1169" math="0" shadow="0">
      <root>
        <mxCell id="0" />
        <mxCell id="1" parent="0" />
        <mxCell id="uHYUErBOptb2Cv8OUy0e-1" value="Board" style="swimlane;strokeColor=#23445d;fontSize=14;fillColor=#bac8d3;" vertex="1" parent="1">
          <mxGeometry x="854" y="655" width="1110" height="670" as="geometry" />
        </mxCell>
        <mxCell id="uHYUErBOptb2Cv8OUy0e-2" value="Module / Chip" style="swimlane;strokeColor=#9673a6;fontSize=14;fillColor=#e1d5e7;" vertex="1" parent="uHYUErBOptb2Cv8OUy0e-1">
          <mxGeometry x="22.75" y="40" width="506" height="270" as="geometry" />
        </mxCell>
        <mxCell id="uHYUErBOptb2Cv8OUy0e-3" style="edgeStyle=none;rounded=0;orthogonalLoop=1;jettySize=auto;html=1;strokeColor=#FF00FF;fontColor=#FF0000;startArrow=classic;startFill=1;endArrow=classic;endFill=1;" edge="1" parent="uHYUErBOptb2Cv8OUy0e-2" source="uHYUErBOptb2Cv8OUy0e-4" target="uHYUErBOptb2Cv8OUy0e-39">
          <mxGeometry relative="1" as="geometry" />
        </mxCell>
        <mxCell id="uHYUErBOptb2Cv8OUy0e-4" value="Cluster" style="swimlane;strokeColor=#d79b00;fontSize=14;fillColor=#ffe6cc;" vertex="1" parent="uHYUErBOptb2Cv8OUy0e-2">
          <mxGeometry x="20" y="40" width="130" height="150" as="geometry" />
        </mxCell>
        <mxCell id="uHYUErBOptb2Cv8OUy0e-5" style="edgeStyle=none;rounded=0;orthogonalLoop=1;jettySize=auto;html=1;strokeColor=#000000;fontColor=#FF0000;endArrow=classic;endFill=1;startArrow=classic;startFill=1;" edge="1" parent="uHYUErBOptb2Cv8OUy0e-4" source="uHYUErBOptb2Cv8OUy0e-8" target="uHYUErBOptb2Cv8OUy0e-10">
          <mxGeometry relative="1" as="geometry" />
        </mxCell>
        <mxCell id="uHYUErBOptb2Cv8OUy0e-6" style="edgeStyle=none;rounded=0;orthogonalLoop=1;jettySize=auto;html=1;strokeColor=#000000;fontColor=#FF0000;endArrow=classic;endFill=1;startArrow=classic;startFill=1;" edge="1" parent="uHYUErBOptb2Cv8OUy0e-4" source="uHYUErBOptb2Cv8OUy0e-8" target="uHYUErBOptb2Cv8OUy0e-11">
          <mxGeometry relative="1" as="geometry" />
        </mxCell>
        <mxCell id="uHYUErBOptb2Cv8OUy0e-7" style="edgeStyle=none;rounded=0;orthogonalLoop=1;jettySize=auto;html=1;strokeColor=#000000;fontColor=#FF0000;endArrow=classic;endFill=1;startArrow=classic;startFill=1;" edge="1" parent="uHYUErBOptb2Cv8OUy0e-4" source="uHYUErBOptb2Cv8OUy0e-8" target="uHYUErBOptb2Cv8OUy0e-14">
          <mxGeometry relative="1" as="geometry" />
        </mxCell>
        <mxCell id="uHYUErBOptb2Cv8OUy0e-8" value="EP" style="whiteSpace=wrap;html=1;aspect=fixed;strokeColor=#b85450;fontSize=14;fillColor=#f8cecc;" vertex="1" parent="uHYUErBOptb2Cv8OUy0e-4">
          <mxGeometry x="19.5" y="40" width="35" height="35" as="geometry" />
        </mxCell>
        <mxCell id="uHYUErBOptb2Cv8OUy0e-9" style="edgeStyle=none;rounded=0;orthogonalLoop=1;jettySize=auto;html=1;strokeColor=#000000;fontColor=#FF0000;endArrow=classic;endFill=1;startArrow=classic;startFill=1;" edge="1" parent="uHYUErBOptb2Cv8OUy0e-4" source="uHYUErBOptb2Cv8OUy0e-10" target="uHYUErBOptb2Cv8OUy0e-11">
          <mxGeometry relative="1" as="geometry" />
        </mxCell>
        <mxCell id="uHYUErBOptb2Cv8OUy0e-10" value="EP" style="whiteSpace=wrap;html=1;aspect=fixed;strokeColor=#b85450;fontSize=14;fillColor=#f8cecc;" vertex="1" parent="uHYUErBOptb2Cv8OUy0e-4">
          <mxGeometry x="75.5" y="40" width="35" height="35" as="geometry" />
        </mxCell>
        <mxCell id="uHYUErBOptb2Cv8OUy0e-11" value="EP" style="whiteSpace=wrap;html=1;aspect=fixed;strokeColor=#b85450;fontSize=14;fillColor=#f8cecc;" vertex="1" parent="uHYUErBOptb2Cv8OUy0e-4">
          <mxGeometry x="19.5" y="100" width="35" height="35" as="geometry" />
        </mxCell>
        <mxCell id="uHYUErBOptb2Cv8OUy0e-12" style="edgeStyle=none;rounded=0;orthogonalLoop=1;jettySize=auto;html=1;strokeColor=#000000;fontColor=#FF0000;endArrow=classic;endFill=1;startArrow=classic;startFill=1;" edge="1" parent="uHYUErBOptb2Cv8OUy0e-4" source="uHYUErBOptb2Cv8OUy0e-14" target="uHYUErBOptb2Cv8OUy0e-10">
          <mxGeometry relative="1" as="geometry" />
        </mxCell>
        <mxCell id="uHYUErBOptb2Cv8OUy0e-13" style="edgeStyle=none;rounded=0;orthogonalLoop=1;jettySize=auto;html=1;strokeColor=#000000;fontColor=#FF0000;endArrow=classic;endFill=1;startArrow=classic;startFill=1;" edge="1" parent="uHYUErBOptb2Cv8OUy0e-4" source="uHYUErBOptb2Cv8OUy0e-14" target="uHYUErBOptb2Cv8OUy0e-11">
          <mxGeometry relative="1" as="geometry" />
        </mxCell>
        <mxCell id="uHYUErBOptb2Cv8OUy0e-14" value="EP" style="whiteSpace=wrap;html=1;aspect=fixed;strokeColor=#b85450;fontSize=14;fillColor=#f8cecc;" vertex="1" parent="uHYUErBOptb2Cv8OUy0e-4">
          <mxGeometry x="75.5" y="100" width="35" height="35" as="geometry" />
        </mxCell>
        <mxCell id="uHYUErBOptb2Cv8OUy0e-15" value="Cluster" style="swimlane;strokeColor=#d79b00;fontSize=14;fillColor=#ffe6cc;" vertex="1" parent="uHYUErBOptb2Cv8OUy0e-2">
          <mxGeometry x="185" y="40" width="130" height="150" as="geometry" />
        </mxCell>
        <mxCell id="uHYUErBOptb2Cv8OUy0e-16" style="edgeStyle=none;rounded=0;orthogonalLoop=1;jettySize=auto;html=1;strokeColor=#000000;fontColor=#FF0000;endArrow=classic;endFill=1;startArrow=classic;startFill=1;" edge="1" parent="uHYUErBOptb2Cv8OUy0e-15" source="uHYUErBOptb2Cv8OUy0e-19" target="uHYUErBOptb2Cv8OUy0e-21">
          <mxGeometry relative="1" as="geometry" />
        </mxCell>
        <mxCell id="uHYUErBOptb2Cv8OUy0e-17" style="edgeStyle=none;rounded=0;orthogonalLoop=1;jettySize=auto;html=1;strokeColor=#000000;fontColor=#FF0000;endArrow=classic;endFill=1;startArrow=classic;startFill=1;" edge="1" parent="uHYUErBOptb2Cv8OUy0e-15" source="uHYUErBOptb2Cv8OUy0e-19" target="uHYUErBOptb2Cv8OUy0e-22">
          <mxGeometry relative="1" as="geometry" />
        </mxCell>
        <mxCell id="uHYUErBOptb2Cv8OUy0e-18" style="edgeStyle=none;rounded=0;orthogonalLoop=1;jettySize=auto;html=1;strokeColor=#000000;fontColor=#FF0000;endArrow=classic;endFill=1;startArrow=classic;startFill=1;" edge="1" parent="uHYUErBOptb2Cv8OUy0e-15" source="uHYUErBOptb2Cv8OUy0e-19" target="uHYUErBOptb2Cv8OUy0e-25">
          <mxGeometry relative="1" as="geometry" />
        </mxCell>
        <mxCell id="uHYUErBOptb2Cv8OUy0e-19" value="EP" style="whiteSpace=wrap;html=1;aspect=fixed;strokeColor=#b85450;fontSize=14;fillColor=#f8cecc;" vertex="1" parent="uHYUErBOptb2Cv8OUy0e-15">
          <mxGeometry x="19" y="40" width="35" height="35" as="geometry" />
        </mxCell>
        <mxCell id="uHYUErBOptb2Cv8OUy0e-20" style="edgeStyle=none;rounded=0;orthogonalLoop=1;jettySize=auto;html=1;strokeColor=#000000;fontColor=#FF0000;endArrow=classic;endFill=1;startArrow=classic;startFill=1;" edge="1" parent="uHYUErBOptb2Cv8OUy0e-15" source="uHYUErBOptb2Cv8OUy0e-21" target="uHYUErBOptb2Cv8OUy0e-22">
          <mxGeometry relative="1" as="geometry" />
        </mxCell>
        <mxCell id="uHYUErBOptb2Cv8OUy0e-21" value="EP" style="whiteSpace=wrap;html=1;aspect=fixed;strokeColor=#b85450;fontSize=14;fillColor=#f8cecc;" vertex="1" parent="uHYUErBOptb2Cv8OUy0e-15">
          <mxGeometry x="75" y="40" width="35" height="35" as="geometry" />
        </mxCell>
        <mxCell id="uHYUErBOptb2Cv8OUy0e-22" value="EP" style="whiteSpace=wrap;html=1;aspect=fixed;strokeColor=#b85450;fontSize=14;fillColor=#f8cecc;" vertex="1" parent="uHYUErBOptb2Cv8OUy0e-15">
          <mxGeometry x="19" y="100" width="35" height="35" as="geometry" />
        </mxCell>
        <mxCell id="uHYUErBOptb2Cv8OUy0e-23" style="edgeStyle=none;rounded=0;orthogonalLoop=1;jettySize=auto;html=1;strokeColor=#000000;fontColor=#FF0000;endArrow=classic;endFill=1;startArrow=classic;startFill=1;" edge="1" parent="uHYUErBOptb2Cv8OUy0e-15" source="uHYUErBOptb2Cv8OUy0e-25" target="uHYUErBOptb2Cv8OUy0e-21">
          <mxGeometry relative="1" as="geometry" />
        </mxCell>
        <mxCell id="uHYUErBOptb2Cv8OUy0e-24" style="edgeStyle=none;rounded=0;orthogonalLoop=1;jettySize=auto;html=1;strokeColor=#000000;fontColor=#FF0000;endArrow=classic;endFill=1;startArrow=classic;startFill=1;" edge="1" parent="uHYUErBOptb2Cv8OUy0e-15" source="uHYUErBOptb2Cv8OUy0e-25" target="uHYUErBOptb2Cv8OUy0e-22">
          <mxGeometry relative="1" as="geometry" />
        </mxCell>
        <mxCell id="uHYUErBOptb2Cv8OUy0e-25" value="EP" style="whiteSpace=wrap;html=1;aspect=fixed;strokeColor=#b85450;fontSize=14;fillColor=#f8cecc;" vertex="1" parent="uHYUErBOptb2Cv8OUy0e-15">
          <mxGeometry x="75" y="100" width="35" height="35" as="geometry" />
        </mxCell>
        <mxCell id="uHYUErBOptb2Cv8OUy0e-26" value="Cluster" style="swimlane;strokeColor=#d79b00;fontSize=14;fillColor=#ffe6cc;" vertex="1" parent="uHYUErBOptb2Cv8OUy0e-2">
          <mxGeometry x="355" y="40" width="130" height="150" as="geometry" />
        </mxCell>
        <mxCell id="uHYUErBOptb2Cv8OUy0e-27" style="edgeStyle=none;rounded=0;orthogonalLoop=1;jettySize=auto;html=1;strokeColor=#000000;fontColor=#FF0000;endArrow=classic;endFill=1;startArrow=classic;startFill=1;" edge="1" parent="uHYUErBOptb2Cv8OUy0e-26" source="uHYUErBOptb2Cv8OUy0e-30" target="uHYUErBOptb2Cv8OUy0e-32">
          <mxGeometry relative="1" as="geometry" />
        </mxCell>
        <mxCell id="uHYUErBOptb2Cv8OUy0e-28" style="edgeStyle=none;rounded=0;orthogonalLoop=1;jettySize=auto;html=1;strokeColor=#000000;fontColor=#FF0000;endArrow=classic;endFill=1;startArrow=classic;startFill=1;" edge="1" parent="uHYUErBOptb2Cv8OUy0e-26" source="uHYUErBOptb2Cv8OUy0e-30" target="uHYUErBOptb2Cv8OUy0e-33">
          <mxGeometry relative="1" as="geometry" />
        </mxCell>
        <mxCell id="uHYUErBOptb2Cv8OUy0e-29" style="edgeStyle=none;rounded=0;orthogonalLoop=1;jettySize=auto;html=1;strokeColor=#000000;fontColor=#FF0000;endArrow=classic;endFill=1;startArrow=classic;startFill=1;" edge="1" parent="uHYUErBOptb2Cv8OUy0e-26" source="uHYUErBOptb2Cv8OUy0e-30" target="uHYUErBOptb2Cv8OUy0e-36">
          <mxGeometry relative="1" as="geometry" />
        </mxCell>
        <mxCell id="uHYUErBOptb2Cv8OUy0e-30" value="EP" style="whiteSpace=wrap;html=1;aspect=fixed;strokeColor=#b85450;fontSize=14;fillColor=#f8cecc;" vertex="1" parent="uHYUErBOptb2Cv8OUy0e-26">
          <mxGeometry x="19" y="40" width="35" height="35" as="geometry" />
        </mxCell>
        <mxCell id="uHYUErBOptb2Cv8OUy0e-31" style="edgeStyle=none;rounded=0;orthogonalLoop=1;jettySize=auto;html=1;strokeColor=#000000;fontColor=#FF0000;endArrow=classic;endFill=1;startArrow=classic;startFill=1;" edge="1" parent="uHYUErBOptb2Cv8OUy0e-26" source="uHYUErBOptb2Cv8OUy0e-32" target="uHYUErBOptb2Cv8OUy0e-33">
          <mxGeometry relative="1" as="geometry" />
        </mxCell>
        <mxCell id="uHYUErBOptb2Cv8OUy0e-32" value="EP" style="whiteSpace=wrap;html=1;aspect=fixed;strokeColor=#b85450;fontSize=14;fillColor=#f8cecc;" vertex="1" parent="uHYUErBOptb2Cv8OUy0e-26">
          <mxGeometry x="75" y="40" width="35" height="35" as="geometry" />
        </mxCell>
        <mxCell id="uHYUErBOptb2Cv8OUy0e-33" value="EP" style="whiteSpace=wrap;html=1;aspect=fixed;strokeColor=#b85450;fontSize=14;fillColor=#f8cecc;" vertex="1" parent="uHYUErBOptb2Cv8OUy0e-26">
          <mxGeometry x="19" y="100" width="35" height="35" as="geometry" />
        </mxCell>
        <mxCell id="uHYUErBOptb2Cv8OUy0e-34" style="edgeStyle=none;rounded=0;orthogonalLoop=1;jettySize=auto;html=1;strokeColor=#000000;fontColor=#FF0000;endArrow=classic;endFill=1;startArrow=classic;startFill=1;" edge="1" parent="uHYUErBOptb2Cv8OUy0e-26" source="uHYUErBOptb2Cv8OUy0e-36" target="uHYUErBOptb2Cv8OUy0e-32">
          <mxGeometry relative="1" as="geometry" />
        </mxCell>
        <mxCell id="uHYUErBOptb2Cv8OUy0e-35" style="edgeStyle=none;rounded=0;orthogonalLoop=1;jettySize=auto;html=1;strokeColor=#000000;fontColor=#FF0000;endArrow=classic;endFill=1;startArrow=classic;startFill=1;" edge="1" parent="uHYUErBOptb2Cv8OUy0e-26" source="uHYUErBOptb2Cv8OUy0e-36" target="uHYUErBOptb2Cv8OUy0e-33">
          <mxGeometry relative="1" as="geometry" />
        </mxCell>
        <mxCell id="uHYUErBOptb2Cv8OUy0e-36" value="EP" style="whiteSpace=wrap;html=1;aspect=fixed;strokeColor=#b85450;fontSize=14;fillColor=#f8cecc;" vertex="1" parent="uHYUErBOptb2Cv8OUy0e-26">
          <mxGeometry x="75" y="100" width="35" height="35" as="geometry" />
        </mxCell>
        <mxCell id="uHYUErBOptb2Cv8OUy0e-37" style="edgeStyle=none;rounded=0;orthogonalLoop=1;jettySize=auto;html=1;strokeColor=#FF00FF;fontColor=#FF0000;startArrow=classic;startFill=1;endArrow=classic;endFill=1;" edge="1" parent="uHYUErBOptb2Cv8OUy0e-2" source="uHYUErBOptb2Cv8OUy0e-39" target="uHYUErBOptb2Cv8OUy0e-15">
          <mxGeometry relative="1" as="geometry" />
        </mxCell>
        <mxCell id="uHYUErBOptb2Cv8OUy0e-38" style="edgeStyle=none;rounded=0;orthogonalLoop=1;jettySize=auto;html=1;strokeColor=#FF00FF;fontColor=#FF0000;startArrow=classic;startFill=1;endArrow=classic;endFill=1;" edge="1" parent="uHYUErBOptb2Cv8OUy0e-2" source="uHYUErBOptb2Cv8OUy0e-39" target="uHYUErBOptb2Cv8OUy0e-26">
          <mxGeometry relative="1" as="geometry" />
        </mxCell>
        <mxCell id="uHYUErBOptb2Cv8OUy0e-39" value="" style="shape=trapezoid;perimeter=trapezoidPerimeter;whiteSpace=wrap;html=1;fixedSize=1;flipV=0;flipH=0;fillColor=#ffe6cc;strokeColor=#d79b00;" vertex="1" parent="uHYUErBOptb2Cv8OUy0e-2">
          <mxGeometry x="33.379999999999995" y="220" width="103.25" height="30" as="geometry" />
        </mxCell>
        <mxCell id="uHYUErBOptb2Cv8OUy0e-40" style="rounded=0;orthogonalLoop=1;jettySize=auto;html=1;strokeColor=#FF00FF;fontColor=#FF0000;startArrow=classic;startFill=1;endArrow=classic;endFill=1;" edge="1" parent="uHYUErBOptb2Cv8OUy0e-2" source="uHYUErBOptb2Cv8OUy0e-43" target="uHYUErBOptb2Cv8OUy0e-15">
          <mxGeometry relative="1" as="geometry" />
        </mxCell>
        <mxCell id="uHYUErBOptb2Cv8OUy0e-41" style="edgeStyle=none;rounded=0;orthogonalLoop=1;jettySize=auto;html=1;strokeColor=#FF00FF;fontColor=#FF0000;startArrow=classic;startFill=1;endArrow=classic;endFill=1;" edge="1" parent="uHYUErBOptb2Cv8OUy0e-2" source="uHYUErBOptb2Cv8OUy0e-43" target="uHYUErBOptb2Cv8OUy0e-4">
          <mxGeometry relative="1" as="geometry" />
        </mxCell>
        <mxCell id="uHYUErBOptb2Cv8OUy0e-42" style="edgeStyle=none;rounded=0;orthogonalLoop=1;jettySize=auto;html=1;strokeColor=#FF00FF;fontColor=#FF0000;startArrow=classic;startFill=1;endArrow=classic;endFill=1;" edge="1" parent="uHYUErBOptb2Cv8OUy0e-2" source="uHYUErBOptb2Cv8OUy0e-43" target="uHYUErBOptb2Cv8OUy0e-26">
          <mxGeometry relative="1" as="geometry" />
        </mxCell>
        <mxCell id="uHYUErBOptb2Cv8OUy0e-43" value="" style="shape=trapezoid;perimeter=trapezoidPerimeter;whiteSpace=wrap;html=1;fixedSize=1;flipV=0;flipH=0;fillColor=#ffe6cc;strokeColor=#d79b00;" vertex="1" parent="uHYUErBOptb2Cv8OUy0e-2">
          <mxGeometry x="198.38" y="220" width="103.25" height="30" as="geometry" />
        </mxCell>
        <mxCell id="uHYUErBOptb2Cv8OUy0e-44" style="edgeStyle=none;rounded=0;orthogonalLoop=1;jettySize=auto;html=1;strokeColor=#FF00FF;fontColor=#FF0000;startArrow=classic;startFill=1;endArrow=classic;endFill=1;" edge="1" parent="uHYUErBOptb2Cv8OUy0e-2" source="uHYUErBOptb2Cv8OUy0e-47" target="uHYUErBOptb2Cv8OUy0e-15">
          <mxGeometry relative="1" as="geometry" />
        </mxCell>
        <mxCell id="uHYUErBOptb2Cv8OUy0e-45" style="edgeStyle=none;rounded=0;orthogonalLoop=1;jettySize=auto;html=1;strokeColor=#FF00FF;fontColor=#FF0000;startArrow=classic;startFill=1;endArrow=classic;endFill=1;" edge="1" parent="uHYUErBOptb2Cv8OUy0e-2" source="uHYUErBOptb2Cv8OUy0e-47" target="uHYUErBOptb2Cv8OUy0e-26">
          <mxGeometry relative="1" as="geometry" />
        </mxCell>
        <mxCell id="uHYUErBOptb2Cv8OUy0e-46" style="edgeStyle=none;rounded=0;orthogonalLoop=1;jettySize=auto;html=1;strokeColor=#FF00FF;fontColor=#FF0000;startArrow=classic;startFill=1;endArrow=classic;endFill=1;" edge="1" parent="uHYUErBOptb2Cv8OUy0e-2" source="uHYUErBOptb2Cv8OUy0e-47" target="uHYUErBOptb2Cv8OUy0e-4">
          <mxGeometry relative="1" as="geometry" />
        </mxCell>
        <mxCell id="uHYUErBOptb2Cv8OUy0e-47" value="" style="shape=trapezoid;perimeter=trapezoidPerimeter;whiteSpace=wrap;html=1;fixedSize=1;flipV=0;flipH=0;fillColor=#ffe6cc;strokeColor=#d79b00;" vertex="1" parent="uHYUErBOptb2Cv8OUy0e-2">
          <mxGeometry x="365" y="220" width="103.25" height="30" as="geometry" />
        </mxCell>
        <mxCell id="uHYUErBOptb2Cv8OUy0e-48" value="Module / Chip" style="swimlane;strokeColor=#9673a6;fontSize=14;fillColor=#e1d5e7;" vertex="1" parent="uHYUErBOptb2Cv8OUy0e-1">
          <mxGeometry x="580" y="40" width="506" height="270" as="geometry" />
        </mxCell>
        <mxCell id="uHYUErBOptb2Cv8OUy0e-49" style="edgeStyle=none;rounded=0;orthogonalLoop=1;jettySize=auto;html=1;strokeColor=#FF00FF;fontColor=#FF0000;startArrow=classic;startFill=1;endArrow=classic;endFill=1;" edge="1" parent="uHYUErBOptb2Cv8OUy0e-48" source="uHYUErBOptb2Cv8OUy0e-50" target="uHYUErBOptb2Cv8OUy0e-85">
          <mxGeometry relative="1" as="geometry" />
        </mxCell>
        <mxCell id="uHYUErBOptb2Cv8OUy0e-50" value="Cluster" style="swimlane;strokeColor=#d79b00;fontSize=14;fillColor=#ffe6cc;" vertex="1" parent="uHYUErBOptb2Cv8OUy0e-48">
          <mxGeometry x="20" y="40" width="130" height="150" as="geometry" />
        </mxCell>
        <mxCell id="uHYUErBOptb2Cv8OUy0e-51" style="edgeStyle=none;rounded=0;orthogonalLoop=1;jettySize=auto;html=1;strokeColor=#000000;fontColor=#FF0000;endArrow=classic;endFill=1;startArrow=classic;startFill=1;" edge="1" parent="uHYUErBOptb2Cv8OUy0e-50" source="uHYUErBOptb2Cv8OUy0e-54" target="uHYUErBOptb2Cv8OUy0e-56">
          <mxGeometry relative="1" as="geometry" />
        </mxCell>
        <mxCell id="uHYUErBOptb2Cv8OUy0e-52" style="edgeStyle=none;rounded=0;orthogonalLoop=1;jettySize=auto;html=1;strokeColor=#000000;fontColor=#FF0000;endArrow=classic;endFill=1;startArrow=classic;startFill=1;" edge="1" parent="uHYUErBOptb2Cv8OUy0e-50" source="uHYUErBOptb2Cv8OUy0e-54" target="uHYUErBOptb2Cv8OUy0e-57">
          <mxGeometry relative="1" as="geometry" />
        </mxCell>
        <mxCell id="uHYUErBOptb2Cv8OUy0e-53" style="edgeStyle=none;rounded=0;orthogonalLoop=1;jettySize=auto;html=1;strokeColor=#000000;fontColor=#FF0000;endArrow=classic;endFill=1;startArrow=classic;startFill=1;" edge="1" parent="uHYUErBOptb2Cv8OUy0e-50" source="uHYUErBOptb2Cv8OUy0e-54" target="uHYUErBOptb2Cv8OUy0e-60">
          <mxGeometry relative="1" as="geometry" />
        </mxCell>
        <mxCell id="uHYUErBOptb2Cv8OUy0e-54" value="EP" style="whiteSpace=wrap;html=1;aspect=fixed;strokeColor=#b85450;fontSize=14;fillColor=#f8cecc;" vertex="1" parent="uHYUErBOptb2Cv8OUy0e-50">
          <mxGeometry x="19.5" y="40" width="35" height="35" as="geometry" />
        </mxCell>
        <mxCell id="uHYUErBOptb2Cv8OUy0e-55" style="edgeStyle=none;rounded=0;orthogonalLoop=1;jettySize=auto;html=1;strokeColor=#000000;fontColor=#FF0000;endArrow=classic;endFill=1;startArrow=classic;startFill=1;" edge="1" parent="uHYUErBOptb2Cv8OUy0e-50" source="uHYUErBOptb2Cv8OUy0e-56" target="uHYUErBOptb2Cv8OUy0e-57">
          <mxGeometry relative="1" as="geometry" />
        </mxCell>
        <mxCell id="uHYUErBOptb2Cv8OUy0e-56" value="EP" style="whiteSpace=wrap;html=1;aspect=fixed;strokeColor=#b85450;fontSize=14;fillColor=#f8cecc;" vertex="1" parent="uHYUErBOptb2Cv8OUy0e-50">
          <mxGeometry x="75.5" y="40" width="35" height="35" as="geometry" />
        </mxCell>
        <mxCell id="uHYUErBOptb2Cv8OUy0e-57" value="EP" style="whiteSpace=wrap;html=1;aspect=fixed;strokeColor=#b85450;fontSize=14;fillColor=#f8cecc;" vertex="1" parent="uHYUErBOptb2Cv8OUy0e-50">
          <mxGeometry x="19.5" y="100" width="35" height="35" as="geometry" />
        </mxCell>
        <mxCell id="uHYUErBOptb2Cv8OUy0e-58" style="edgeStyle=none;rounded=0;orthogonalLoop=1;jettySize=auto;html=1;strokeColor=#000000;fontColor=#FF0000;endArrow=classic;endFill=1;startArrow=classic;startFill=1;" edge="1" parent="uHYUErBOptb2Cv8OUy0e-50" source="uHYUErBOptb2Cv8OUy0e-60" target="uHYUErBOptb2Cv8OUy0e-56">
          <mxGeometry relative="1" as="geometry" />
        </mxCell>
        <mxCell id="uHYUErBOptb2Cv8OUy0e-59" style="edgeStyle=none;rounded=0;orthogonalLoop=1;jettySize=auto;html=1;strokeColor=#000000;fontColor=#FF0000;endArrow=classic;endFill=1;startArrow=classic;startFill=1;" edge="1" parent="uHYUErBOptb2Cv8OUy0e-50" source="uHYUErBOptb2Cv8OUy0e-60" target="uHYUErBOptb2Cv8OUy0e-57">
          <mxGeometry relative="1" as="geometry" />
        </mxCell>
        <mxCell id="uHYUErBOptb2Cv8OUy0e-60" value="EP" style="whiteSpace=wrap;html=1;aspect=fixed;strokeColor=#b85450;fontSize=14;fillColor=#f8cecc;" vertex="1" parent="uHYUErBOptb2Cv8OUy0e-50">
          <mxGeometry x="75.5" y="100" width="35" height="35" as="geometry" />
        </mxCell>
        <mxCell id="uHYUErBOptb2Cv8OUy0e-61" value="Cluster" style="swimlane;strokeColor=#d79b00;fontSize=14;fillColor=#ffe6cc;" vertex="1" parent="uHYUErBOptb2Cv8OUy0e-48">
          <mxGeometry x="185" y="40" width="130" height="150" as="geometry" />
        </mxCell>
        <mxCell id="uHYUErBOptb2Cv8OUy0e-62" style="edgeStyle=none;rounded=0;orthogonalLoop=1;jettySize=auto;html=1;strokeColor=#000000;fontColor=#FF0000;endArrow=classic;endFill=1;startArrow=classic;startFill=1;" edge="1" parent="uHYUErBOptb2Cv8OUy0e-61" source="uHYUErBOptb2Cv8OUy0e-65" target="uHYUErBOptb2Cv8OUy0e-67">
          <mxGeometry relative="1" as="geometry" />
        </mxCell>
        <mxCell id="uHYUErBOptb2Cv8OUy0e-63" style="edgeStyle=none;rounded=0;orthogonalLoop=1;jettySize=auto;html=1;strokeColor=#000000;fontColor=#FF0000;endArrow=classic;endFill=1;startArrow=classic;startFill=1;" edge="1" parent="uHYUErBOptb2Cv8OUy0e-61" source="uHYUErBOptb2Cv8OUy0e-65" target="uHYUErBOptb2Cv8OUy0e-68">
          <mxGeometry relative="1" as="geometry" />
        </mxCell>
        <mxCell id="uHYUErBOptb2Cv8OUy0e-64" style="edgeStyle=none;rounded=0;orthogonalLoop=1;jettySize=auto;html=1;strokeColor=#000000;fontColor=#FF0000;endArrow=classic;endFill=1;startArrow=classic;startFill=1;" edge="1" parent="uHYUErBOptb2Cv8OUy0e-61" source="uHYUErBOptb2Cv8OUy0e-65" target="uHYUErBOptb2Cv8OUy0e-71">
          <mxGeometry relative="1" as="geometry" />
        </mxCell>
        <mxCell id="uHYUErBOptb2Cv8OUy0e-65" value="EP" style="whiteSpace=wrap;html=1;aspect=fixed;strokeColor=#b85450;fontSize=14;fillColor=#f8cecc;" vertex="1" parent="uHYUErBOptb2Cv8OUy0e-61">
          <mxGeometry x="19" y="40" width="35" height="35" as="geometry" />
        </mxCell>
        <mxCell id="uHYUErBOptb2Cv8OUy0e-66" style="edgeStyle=none;rounded=0;orthogonalLoop=1;jettySize=auto;html=1;strokeColor=#000000;fontColor=#FF0000;endArrow=classic;endFill=1;startArrow=classic;startFill=1;" edge="1" parent="uHYUErBOptb2Cv8OUy0e-61" source="uHYUErBOptb2Cv8OUy0e-67" target="uHYUErBOptb2Cv8OUy0e-68">
          <mxGeometry relative="1" as="geometry" />
        </mxCell>
        <mxCell id="uHYUErBOptb2Cv8OUy0e-67" value="EP" style="whiteSpace=wrap;html=1;aspect=fixed;strokeColor=#b85450;fontSize=14;fillColor=#f8cecc;" vertex="1" parent="uHYUErBOptb2Cv8OUy0e-61">
          <mxGeometry x="75" y="40" width="35" height="35" as="geometry" />
        </mxCell>
        <mxCell id="uHYUErBOptb2Cv8OUy0e-68" value="EP" style="whiteSpace=wrap;html=1;aspect=fixed;strokeColor=#b85450;fontSize=14;fillColor=#f8cecc;" vertex="1" parent="uHYUErBOptb2Cv8OUy0e-61">
          <mxGeometry x="19" y="100" width="35" height="35" as="geometry" />
        </mxCell>
        <mxCell id="uHYUErBOptb2Cv8OUy0e-69" style="edgeStyle=none;rounded=0;orthogonalLoop=1;jettySize=auto;html=1;strokeColor=#000000;fontColor=#FF0000;endArrow=classic;endFill=1;startArrow=classic;startFill=1;" edge="1" parent="uHYUErBOptb2Cv8OUy0e-61" source="uHYUErBOptb2Cv8OUy0e-71" target="uHYUErBOptb2Cv8OUy0e-67">
          <mxGeometry relative="1" as="geometry" />
        </mxCell>
        <mxCell id="uHYUErBOptb2Cv8OUy0e-70" style="edgeStyle=none;rounded=0;orthogonalLoop=1;jettySize=auto;html=1;strokeColor=#000000;fontColor=#FF0000;endArrow=classic;endFill=1;startArrow=classic;startFill=1;" edge="1" parent="uHYUErBOptb2Cv8OUy0e-61" source="uHYUErBOptb2Cv8OUy0e-71" target="uHYUErBOptb2Cv8OUy0e-68">
          <mxGeometry relative="1" as="geometry" />
        </mxCell>
        <mxCell id="uHYUErBOptb2Cv8OUy0e-71" value="EP" style="whiteSpace=wrap;html=1;aspect=fixed;strokeColor=#b85450;fontSize=14;fillColor=#f8cecc;" vertex="1" parent="uHYUErBOptb2Cv8OUy0e-61">
          <mxGeometry x="75" y="100" width="35" height="35" as="geometry" />
        </mxCell>
        <mxCell id="uHYUErBOptb2Cv8OUy0e-72" value="Cluster" style="swimlane;strokeColor=#d79b00;fontSize=14;fillColor=#ffe6cc;" vertex="1" parent="uHYUErBOptb2Cv8OUy0e-48">
          <mxGeometry x="355" y="40" width="130" height="150" as="geometry" />
        </mxCell>
        <mxCell id="uHYUErBOptb2Cv8OUy0e-73" style="edgeStyle=none;rounded=0;orthogonalLoop=1;jettySize=auto;html=1;strokeColor=#000000;fontColor=#FF0000;endArrow=classic;endFill=1;startArrow=classic;startFill=1;" edge="1" parent="uHYUErBOptb2Cv8OUy0e-72" source="uHYUErBOptb2Cv8OUy0e-76" target="uHYUErBOptb2Cv8OUy0e-78">
          <mxGeometry relative="1" as="geometry" />
        </mxCell>
        <mxCell id="uHYUErBOptb2Cv8OUy0e-74" style="edgeStyle=none;rounded=0;orthogonalLoop=1;jettySize=auto;html=1;strokeColor=#000000;fontColor=#FF0000;endArrow=classic;endFill=1;startArrow=classic;startFill=1;" edge="1" parent="uHYUErBOptb2Cv8OUy0e-72" source="uHYUErBOptb2Cv8OUy0e-76" target="uHYUErBOptb2Cv8OUy0e-79">
          <mxGeometry relative="1" as="geometry" />
        </mxCell>
        <mxCell id="uHYUErBOptb2Cv8OUy0e-75" style="edgeStyle=none;rounded=0;orthogonalLoop=1;jettySize=auto;html=1;strokeColor=#000000;fontColor=#FF0000;endArrow=classic;endFill=1;startArrow=classic;startFill=1;" edge="1" parent="uHYUErBOptb2Cv8OUy0e-72" source="uHYUErBOptb2Cv8OUy0e-76" target="uHYUErBOptb2Cv8OUy0e-82">
          <mxGeometry relative="1" as="geometry" />
        </mxCell>
        <mxCell id="uHYUErBOptb2Cv8OUy0e-76" value="EP" style="whiteSpace=wrap;html=1;aspect=fixed;strokeColor=#b85450;fontSize=14;fillColor=#f8cecc;" vertex="1" parent="uHYUErBOptb2Cv8OUy0e-72">
          <mxGeometry x="19" y="40" width="35" height="35" as="geometry" />
        </mxCell>
        <mxCell id="uHYUErBOptb2Cv8OUy0e-77" style="edgeStyle=none;rounded=0;orthogonalLoop=1;jettySize=auto;html=1;strokeColor=#000000;fontColor=#FF0000;endArrow=classic;endFill=1;startArrow=classic;startFill=1;" edge="1" parent="uHYUErBOptb2Cv8OUy0e-72" source="uHYUErBOptb2Cv8OUy0e-78" target="uHYUErBOptb2Cv8OUy0e-79">
          <mxGeometry relative="1" as="geometry" />
        </mxCell>
        <mxCell id="uHYUErBOptb2Cv8OUy0e-78" value="EP" style="whiteSpace=wrap;html=1;aspect=fixed;strokeColor=#b85450;fontSize=14;fillColor=#f8cecc;" vertex="1" parent="uHYUErBOptb2Cv8OUy0e-72">
          <mxGeometry x="75" y="40" width="35" height="35" as="geometry" />
        </mxCell>
        <mxCell id="uHYUErBOptb2Cv8OUy0e-79" value="EP" style="whiteSpace=wrap;html=1;aspect=fixed;strokeColor=#b85450;fontSize=14;fillColor=#f8cecc;" vertex="1" parent="uHYUErBOptb2Cv8OUy0e-72">
          <mxGeometry x="19" y="100" width="35" height="35" as="geometry" />
        </mxCell>
        <mxCell id="uHYUErBOptb2Cv8OUy0e-80" style="edgeStyle=none;rounded=0;orthogonalLoop=1;jettySize=auto;html=1;strokeColor=#000000;fontColor=#FF0000;endArrow=classic;endFill=1;startArrow=classic;startFill=1;" edge="1" parent="uHYUErBOptb2Cv8OUy0e-72" source="uHYUErBOptb2Cv8OUy0e-82" target="uHYUErBOptb2Cv8OUy0e-78">
          <mxGeometry relative="1" as="geometry" />
        </mxCell>
        <mxCell id="uHYUErBOptb2Cv8OUy0e-81" style="edgeStyle=none;rounded=0;orthogonalLoop=1;jettySize=auto;html=1;strokeColor=#000000;fontColor=#FF0000;endArrow=classic;endFill=1;startArrow=classic;startFill=1;" edge="1" parent="uHYUErBOptb2Cv8OUy0e-72" source="uHYUErBOptb2Cv8OUy0e-82" target="uHYUErBOptb2Cv8OUy0e-79">
          <mxGeometry relative="1" as="geometry" />
        </mxCell>
        <mxCell id="uHYUErBOptb2Cv8OUy0e-82" value="EP" style="whiteSpace=wrap;html=1;aspect=fixed;strokeColor=#b85450;fontSize=14;fillColor=#f8cecc;" vertex="1" parent="uHYUErBOptb2Cv8OUy0e-72">
          <mxGeometry x="75" y="100" width="35" height="35" as="geometry" />
        </mxCell>
        <mxCell id="uHYUErBOptb2Cv8OUy0e-83" style="edgeStyle=none;rounded=0;orthogonalLoop=1;jettySize=auto;html=1;strokeColor=#FF00FF;fontColor=#FF0000;startArrow=classic;startFill=1;endArrow=classic;endFill=1;" edge="1" parent="uHYUErBOptb2Cv8OUy0e-48" source="uHYUErBOptb2Cv8OUy0e-85" target="uHYUErBOptb2Cv8OUy0e-61">
          <mxGeometry relative="1" as="geometry" />
        </mxCell>
        <mxCell id="uHYUErBOptb2Cv8OUy0e-84" style="edgeStyle=none;rounded=0;orthogonalLoop=1;jettySize=auto;html=1;strokeColor=#FF00FF;fontColor=#FF0000;startArrow=classic;startFill=1;endArrow=classic;endFill=1;" edge="1" parent="uHYUErBOptb2Cv8OUy0e-48" source="uHYUErBOptb2Cv8OUy0e-85" target="uHYUErBOptb2Cv8OUy0e-72">
          <mxGeometry relative="1" as="geometry" />
        </mxCell>
        <mxCell id="uHYUErBOptb2Cv8OUy0e-85" value="" style="shape=trapezoid;perimeter=trapezoidPerimeter;whiteSpace=wrap;html=1;fixedSize=1;flipV=0;flipH=0;fillColor=#ffe6cc;strokeColor=#d79b00;" vertex="1" parent="uHYUErBOptb2Cv8OUy0e-48">
          <mxGeometry x="33.379999999999995" y="220" width="103.25" height="30" as="geometry" />
        </mxCell>
        <mxCell id="uHYUErBOptb2Cv8OUy0e-86" style="rounded=0;orthogonalLoop=1;jettySize=auto;html=1;strokeColor=#FF00FF;fontColor=#FF0000;startArrow=classic;startFill=1;endArrow=classic;endFill=1;" edge="1" parent="uHYUErBOptb2Cv8OUy0e-48" source="uHYUErBOptb2Cv8OUy0e-89" target="uHYUErBOptb2Cv8OUy0e-61">
          <mxGeometry relative="1" as="geometry" />
        </mxCell>
        <mxCell id="uHYUErBOptb2Cv8OUy0e-87" style="edgeStyle=none;rounded=0;orthogonalLoop=1;jettySize=auto;html=1;strokeColor=#FF00FF;fontColor=#FF0000;startArrow=classic;startFill=1;endArrow=classic;endFill=1;" edge="1" parent="uHYUErBOptb2Cv8OUy0e-48" source="uHYUErBOptb2Cv8OUy0e-89" target="uHYUErBOptb2Cv8OUy0e-50">
          <mxGeometry relative="1" as="geometry" />
        </mxCell>
        <mxCell id="uHYUErBOptb2Cv8OUy0e-88" style="edgeStyle=none;rounded=0;orthogonalLoop=1;jettySize=auto;html=1;strokeColor=#FF00FF;fontColor=#FF0000;startArrow=classic;startFill=1;endArrow=classic;endFill=1;" edge="1" parent="uHYUErBOptb2Cv8OUy0e-48" source="uHYUErBOptb2Cv8OUy0e-89" target="uHYUErBOptb2Cv8OUy0e-72">
          <mxGeometry relative="1" as="geometry" />
        </mxCell>
        <mxCell id="uHYUErBOptb2Cv8OUy0e-89" value="" style="shape=trapezoid;perimeter=trapezoidPerimeter;whiteSpace=wrap;html=1;fixedSize=1;flipV=0;flipH=0;fillColor=#ffe6cc;strokeColor=#d79b00;" vertex="1" parent="uHYUErBOptb2Cv8OUy0e-48">
          <mxGeometry x="198.38" y="220" width="103.25" height="30" as="geometry" />
        </mxCell>
        <mxCell id="uHYUErBOptb2Cv8OUy0e-90" style="edgeStyle=none;rounded=0;orthogonalLoop=1;jettySize=auto;html=1;strokeColor=#FF00FF;fontColor=#FF0000;startArrow=classic;startFill=1;endArrow=classic;endFill=1;" edge="1" parent="uHYUErBOptb2Cv8OUy0e-48" source="uHYUErBOptb2Cv8OUy0e-93" target="uHYUErBOptb2Cv8OUy0e-61">
          <mxGeometry relative="1" as="geometry" />
        </mxCell>
        <mxCell id="uHYUErBOptb2Cv8OUy0e-91" style="edgeStyle=none;rounded=0;orthogonalLoop=1;jettySize=auto;html=1;strokeColor=#FF00FF;fontColor=#FF0000;startArrow=classic;startFill=1;endArrow=classic;endFill=1;" edge="1" parent="uHYUErBOptb2Cv8OUy0e-48" source="uHYUErBOptb2Cv8OUy0e-93" target="uHYUErBOptb2Cv8OUy0e-72">
          <mxGeometry relative="1" as="geometry" />
        </mxCell>
        <mxCell id="uHYUErBOptb2Cv8OUy0e-92" style="edgeStyle=none;rounded=0;orthogonalLoop=1;jettySize=auto;html=1;strokeColor=#FF00FF;fontColor=#FF0000;startArrow=classic;startFill=1;endArrow=classic;endFill=1;" edge="1" parent="uHYUErBOptb2Cv8OUy0e-48" source="uHYUErBOptb2Cv8OUy0e-93" target="uHYUErBOptb2Cv8OUy0e-50">
          <mxGeometry relative="1" as="geometry" />
        </mxCell>
        <mxCell id="uHYUErBOptb2Cv8OUy0e-93" value="" style="shape=trapezoid;perimeter=trapezoidPerimeter;whiteSpace=wrap;html=1;fixedSize=1;flipV=0;flipH=0;fillColor=#ffe6cc;strokeColor=#d79b00;" vertex="1" parent="uHYUErBOptb2Cv8OUy0e-48">
          <mxGeometry x="365" y="220" width="103.25" height="30" as="geometry" />
        </mxCell>
        <mxCell id="uHYUErBOptb2Cv8OUy0e-94" value="Module / Chip" style="swimlane;strokeColor=#9673a6;fontSize=14;fillColor=#e1d5e7;" vertex="1" parent="uHYUErBOptb2Cv8OUy0e-1">
          <mxGeometry x="580" y="380" width="506" height="270" as="geometry" />
        </mxCell>
        <mxCell id="uHYUErBOptb2Cv8OUy0e-95" style="edgeStyle=none;rounded=0;orthogonalLoop=1;jettySize=auto;html=1;strokeColor=#FF00FF;fontColor=#FF0000;startArrow=classic;startFill=1;endArrow=classic;endFill=1;" edge="1" parent="uHYUErBOptb2Cv8OUy0e-94" source="uHYUErBOptb2Cv8OUy0e-96" target="uHYUErBOptb2Cv8OUy0e-131">
          <mxGeometry relative="1" as="geometry" />
        </mxCell>
        <mxCell id="uHYUErBOptb2Cv8OUy0e-96" value="Cluster" style="swimlane;strokeColor=#d79b00;fontSize=14;fillColor=#ffe6cc;" vertex="1" parent="uHYUErBOptb2Cv8OUy0e-94">
          <mxGeometry x="20" y="40" width="130" height="150" as="geometry" />
        </mxCell>
        <mxCell id="uHYUErBOptb2Cv8OUy0e-97" style="edgeStyle=none;rounded=0;orthogonalLoop=1;jettySize=auto;html=1;strokeColor=#000000;fontColor=#FF0000;endArrow=classic;endFill=1;startArrow=classic;startFill=1;" edge="1" parent="uHYUErBOptb2Cv8OUy0e-96" source="uHYUErBOptb2Cv8OUy0e-100" target="uHYUErBOptb2Cv8OUy0e-102">
          <mxGeometry relative="1" as="geometry" />
        </mxCell>
        <mxCell id="uHYUErBOptb2Cv8OUy0e-98" style="edgeStyle=none;rounded=0;orthogonalLoop=1;jettySize=auto;html=1;strokeColor=#000000;fontColor=#FF0000;endArrow=classic;endFill=1;startArrow=classic;startFill=1;" edge="1" parent="uHYUErBOptb2Cv8OUy0e-96" source="uHYUErBOptb2Cv8OUy0e-100" target="uHYUErBOptb2Cv8OUy0e-103">
          <mxGeometry relative="1" as="geometry" />
        </mxCell>
        <mxCell id="uHYUErBOptb2Cv8OUy0e-99" style="edgeStyle=none;rounded=0;orthogonalLoop=1;jettySize=auto;html=1;strokeColor=#000000;fontColor=#FF0000;endArrow=classic;endFill=1;startArrow=classic;startFill=1;" edge="1" parent="uHYUErBOptb2Cv8OUy0e-96" source="uHYUErBOptb2Cv8OUy0e-100" target="uHYUErBOptb2Cv8OUy0e-106">
          <mxGeometry relative="1" as="geometry" />
        </mxCell>
        <mxCell id="uHYUErBOptb2Cv8OUy0e-100" value="EP" style="whiteSpace=wrap;html=1;aspect=fixed;strokeColor=#b85450;fontSize=14;fillColor=#f8cecc;" vertex="1" parent="uHYUErBOptb2Cv8OUy0e-96">
          <mxGeometry x="19.5" y="40" width="35" height="35" as="geometry" />
        </mxCell>
        <mxCell id="uHYUErBOptb2Cv8OUy0e-101" style="edgeStyle=none;rounded=0;orthogonalLoop=1;jettySize=auto;html=1;strokeColor=#000000;fontColor=#FF0000;endArrow=classic;endFill=1;startArrow=classic;startFill=1;" edge="1" parent="uHYUErBOptb2Cv8OUy0e-96" source="uHYUErBOptb2Cv8OUy0e-102" target="uHYUErBOptb2Cv8OUy0e-103">
          <mxGeometry relative="1" as="geometry" />
        </mxCell>
        <mxCell id="uHYUErBOptb2Cv8OUy0e-102" value="EP" style="whiteSpace=wrap;html=1;aspect=fixed;strokeColor=#b85450;fontSize=14;fillColor=#f8cecc;" vertex="1" parent="uHYUErBOptb2Cv8OUy0e-96">
          <mxGeometry x="75.5" y="40" width="35" height="35" as="geometry" />
        </mxCell>
        <mxCell id="uHYUErBOptb2Cv8OUy0e-103" value="EP" style="whiteSpace=wrap;html=1;aspect=fixed;strokeColor=#b85450;fontSize=14;fillColor=#f8cecc;" vertex="1" parent="uHYUErBOptb2Cv8OUy0e-96">
          <mxGeometry x="19.5" y="100" width="35" height="35" as="geometry" />
        </mxCell>
        <mxCell id="uHYUErBOptb2Cv8OUy0e-104" style="edgeStyle=none;rounded=0;orthogonalLoop=1;jettySize=auto;html=1;strokeColor=#000000;fontColor=#FF0000;endArrow=classic;endFill=1;startArrow=classic;startFill=1;" edge="1" parent="uHYUErBOptb2Cv8OUy0e-96" source="uHYUErBOptb2Cv8OUy0e-106" target="uHYUErBOptb2Cv8OUy0e-102">
          <mxGeometry relative="1" as="geometry" />
        </mxCell>
        <mxCell id="uHYUErBOptb2Cv8OUy0e-105" style="edgeStyle=none;rounded=0;orthogonalLoop=1;jettySize=auto;html=1;strokeColor=#000000;fontColor=#FF0000;endArrow=classic;endFill=1;startArrow=classic;startFill=1;" edge="1" parent="uHYUErBOptb2Cv8OUy0e-96" source="uHYUErBOptb2Cv8OUy0e-106" target="uHYUErBOptb2Cv8OUy0e-103">
          <mxGeometry relative="1" as="geometry" />
        </mxCell>
        <mxCell id="uHYUErBOptb2Cv8OUy0e-106" value="EP" style="whiteSpace=wrap;html=1;aspect=fixed;strokeColor=#b85450;fontSize=14;fillColor=#f8cecc;" vertex="1" parent="uHYUErBOptb2Cv8OUy0e-96">
          <mxGeometry x="75.5" y="100" width="35" height="35" as="geometry" />
        </mxCell>
        <mxCell id="uHYUErBOptb2Cv8OUy0e-107" value="Cluster" style="swimlane;strokeColor=#d79b00;fontSize=14;fillColor=#ffe6cc;" vertex="1" parent="uHYUErBOptb2Cv8OUy0e-94">
          <mxGeometry x="185" y="40" width="130" height="150" as="geometry" />
        </mxCell>
        <mxCell id="uHYUErBOptb2Cv8OUy0e-108" style="edgeStyle=none;rounded=0;orthogonalLoop=1;jettySize=auto;html=1;strokeColor=#000000;fontColor=#FF0000;endArrow=classic;endFill=1;startArrow=classic;startFill=1;" edge="1" parent="uHYUErBOptb2Cv8OUy0e-107" source="uHYUErBOptb2Cv8OUy0e-111" target="uHYUErBOptb2Cv8OUy0e-113">
          <mxGeometry relative="1" as="geometry" />
        </mxCell>
        <mxCell id="uHYUErBOptb2Cv8OUy0e-109" style="edgeStyle=none;rounded=0;orthogonalLoop=1;jettySize=auto;html=1;strokeColor=#000000;fontColor=#FF0000;endArrow=classic;endFill=1;startArrow=classic;startFill=1;" edge="1" parent="uHYUErBOptb2Cv8OUy0e-107" source="uHYUErBOptb2Cv8OUy0e-111" target="uHYUErBOptb2Cv8OUy0e-114">
          <mxGeometry relative="1" as="geometry" />
        </mxCell>
        <mxCell id="uHYUErBOptb2Cv8OUy0e-110" style="edgeStyle=none;rounded=0;orthogonalLoop=1;jettySize=auto;html=1;strokeColor=#000000;fontColor=#FF0000;endArrow=classic;endFill=1;startArrow=classic;startFill=1;" edge="1" parent="uHYUErBOptb2Cv8OUy0e-107" source="uHYUErBOptb2Cv8OUy0e-111" target="uHYUErBOptb2Cv8OUy0e-117">
          <mxGeometry relative="1" as="geometry" />
        </mxCell>
        <mxCell id="uHYUErBOptb2Cv8OUy0e-111" value="EP" style="whiteSpace=wrap;html=1;aspect=fixed;strokeColor=#b85450;fontSize=14;fillColor=#f8cecc;" vertex="1" parent="uHYUErBOptb2Cv8OUy0e-107">
          <mxGeometry x="19" y="40" width="35" height="35" as="geometry" />
        </mxCell>
        <mxCell id="uHYUErBOptb2Cv8OUy0e-112" style="edgeStyle=none;rounded=0;orthogonalLoop=1;jettySize=auto;html=1;strokeColor=#000000;fontColor=#FF0000;endArrow=classic;endFill=1;startArrow=classic;startFill=1;" edge="1" parent="uHYUErBOptb2Cv8OUy0e-107" source="uHYUErBOptb2Cv8OUy0e-113" target="uHYUErBOptb2Cv8OUy0e-114">
          <mxGeometry relative="1" as="geometry" />
        </mxCell>
        <mxCell id="uHYUErBOptb2Cv8OUy0e-113" value="EP" style="whiteSpace=wrap;html=1;aspect=fixed;strokeColor=#b85450;fontSize=14;fillColor=#f8cecc;" vertex="1" parent="uHYUErBOptb2Cv8OUy0e-107">
          <mxGeometry x="75" y="40" width="35" height="35" as="geometry" />
        </mxCell>
        <mxCell id="uHYUErBOptb2Cv8OUy0e-114" value="EP" style="whiteSpace=wrap;html=1;aspect=fixed;strokeColor=#b85450;fontSize=14;fillColor=#f8cecc;" vertex="1" parent="uHYUErBOptb2Cv8OUy0e-107">
          <mxGeometry x="19" y="100" width="35" height="35" as="geometry" />
        </mxCell>
        <mxCell id="uHYUErBOptb2Cv8OUy0e-115" style="edgeStyle=none;rounded=0;orthogonalLoop=1;jettySize=auto;html=1;strokeColor=#000000;fontColor=#FF0000;endArrow=classic;endFill=1;startArrow=classic;startFill=1;" edge="1" parent="uHYUErBOptb2Cv8OUy0e-107" source="uHYUErBOptb2Cv8OUy0e-117" target="uHYUErBOptb2Cv8OUy0e-113">
          <mxGeometry relative="1" as="geometry" />
        </mxCell>
        <mxCell id="uHYUErBOptb2Cv8OUy0e-116" style="edgeStyle=none;rounded=0;orthogonalLoop=1;jettySize=auto;html=1;strokeColor=#000000;fontColor=#FF0000;endArrow=classic;endFill=1;startArrow=classic;startFill=1;" edge="1" parent="uHYUErBOptb2Cv8OUy0e-107" source="uHYUErBOptb2Cv8OUy0e-117" target="uHYUErBOptb2Cv8OUy0e-114">
          <mxGeometry relative="1" as="geometry" />
        </mxCell>
        <mxCell id="uHYUErBOptb2Cv8OUy0e-117" value="EP" style="whiteSpace=wrap;html=1;aspect=fixed;strokeColor=#b85450;fontSize=14;fillColor=#f8cecc;" vertex="1" parent="uHYUErBOptb2Cv8OUy0e-107">
          <mxGeometry x="75" y="100" width="35" height="35" as="geometry" />
        </mxCell>
        <mxCell id="uHYUErBOptb2Cv8OUy0e-118" value="Cluster" style="swimlane;strokeColor=#d79b00;fontSize=14;fillColor=#ffe6cc;" vertex="1" parent="uHYUErBOptb2Cv8OUy0e-94">
          <mxGeometry x="355" y="40" width="130" height="150" as="geometry" />
        </mxCell>
        <mxCell id="uHYUErBOptb2Cv8OUy0e-119" style="edgeStyle=none;rounded=0;orthogonalLoop=1;jettySize=auto;html=1;strokeColor=#000000;fontColor=#FF0000;endArrow=classic;endFill=1;startArrow=classic;startFill=1;" edge="1" parent="uHYUErBOptb2Cv8OUy0e-118" source="uHYUErBOptb2Cv8OUy0e-122" target="uHYUErBOptb2Cv8OUy0e-124">
          <mxGeometry relative="1" as="geometry" />
        </mxCell>
        <mxCell id="uHYUErBOptb2Cv8OUy0e-120" style="edgeStyle=none;rounded=0;orthogonalLoop=1;jettySize=auto;html=1;strokeColor=#000000;fontColor=#FF0000;endArrow=classic;endFill=1;startArrow=classic;startFill=1;" edge="1" parent="uHYUErBOptb2Cv8OUy0e-118" source="uHYUErBOptb2Cv8OUy0e-122" target="uHYUErBOptb2Cv8OUy0e-125">
          <mxGeometry relative="1" as="geometry" />
        </mxCell>
        <mxCell id="uHYUErBOptb2Cv8OUy0e-121" style="edgeStyle=none;rounded=0;orthogonalLoop=1;jettySize=auto;html=1;strokeColor=#000000;fontColor=#FF0000;endArrow=classic;endFill=1;startArrow=classic;startFill=1;" edge="1" parent="uHYUErBOptb2Cv8OUy0e-118" source="uHYUErBOptb2Cv8OUy0e-122" target="uHYUErBOptb2Cv8OUy0e-128">
          <mxGeometry relative="1" as="geometry" />
        </mxCell>
        <mxCell id="uHYUErBOptb2Cv8OUy0e-122" value="EP" style="whiteSpace=wrap;html=1;aspect=fixed;strokeColor=#b85450;fontSize=14;fillColor=#f8cecc;" vertex="1" parent="uHYUErBOptb2Cv8OUy0e-118">
          <mxGeometry x="19" y="40" width="35" height="35" as="geometry" />
        </mxCell>
        <mxCell id="uHYUErBOptb2Cv8OUy0e-123" style="edgeStyle=none;rounded=0;orthogonalLoop=1;jettySize=auto;html=1;strokeColor=#000000;fontColor=#FF0000;endArrow=classic;endFill=1;startArrow=classic;startFill=1;" edge="1" parent="uHYUErBOptb2Cv8OUy0e-118" source="uHYUErBOptb2Cv8OUy0e-124" target="uHYUErBOptb2Cv8OUy0e-125">
          <mxGeometry relative="1" as="geometry" />
        </mxCell>
        <mxCell id="uHYUErBOptb2Cv8OUy0e-124" value="EP" style="whiteSpace=wrap;html=1;aspect=fixed;strokeColor=#b85450;fontSize=14;fillColor=#f8cecc;" vertex="1" parent="uHYUErBOptb2Cv8OUy0e-118">
          <mxGeometry x="75" y="40" width="35" height="35" as="geometry" />
        </mxCell>
        <mxCell id="uHYUErBOptb2Cv8OUy0e-125" value="EP" style="whiteSpace=wrap;html=1;aspect=fixed;strokeColor=#b85450;fontSize=14;fillColor=#f8cecc;" vertex="1" parent="uHYUErBOptb2Cv8OUy0e-118">
          <mxGeometry x="19" y="100" width="35" height="35" as="geometry" />
        </mxCell>
        <mxCell id="uHYUErBOptb2Cv8OUy0e-126" style="edgeStyle=none;rounded=0;orthogonalLoop=1;jettySize=auto;html=1;strokeColor=#000000;fontColor=#FF0000;endArrow=classic;endFill=1;startArrow=classic;startFill=1;" edge="1" parent="uHYUErBOptb2Cv8OUy0e-118" source="uHYUErBOptb2Cv8OUy0e-128" target="uHYUErBOptb2Cv8OUy0e-124">
          <mxGeometry relative="1" as="geometry" />
        </mxCell>
        <mxCell id="uHYUErBOptb2Cv8OUy0e-127" style="edgeStyle=none;rounded=0;orthogonalLoop=1;jettySize=auto;html=1;strokeColor=#000000;fontColor=#FF0000;endArrow=classic;endFill=1;startArrow=classic;startFill=1;" edge="1" parent="uHYUErBOptb2Cv8OUy0e-118" source="uHYUErBOptb2Cv8OUy0e-128" target="uHYUErBOptb2Cv8OUy0e-125">
          <mxGeometry relative="1" as="geometry" />
        </mxCell>
        <mxCell id="uHYUErBOptb2Cv8OUy0e-128" value="EP" style="whiteSpace=wrap;html=1;aspect=fixed;strokeColor=#b85450;fontSize=14;fillColor=#f8cecc;" vertex="1" parent="uHYUErBOptb2Cv8OUy0e-118">
          <mxGeometry x="75" y="100" width="35" height="35" as="geometry" />
        </mxCell>
        <mxCell id="uHYUErBOptb2Cv8OUy0e-129" style="edgeStyle=none;rounded=0;orthogonalLoop=1;jettySize=auto;html=1;strokeColor=#FF00FF;fontColor=#FF0000;startArrow=classic;startFill=1;endArrow=classic;endFill=1;" edge="1" parent="uHYUErBOptb2Cv8OUy0e-94" source="uHYUErBOptb2Cv8OUy0e-131" target="uHYUErBOptb2Cv8OUy0e-107">
          <mxGeometry relative="1" as="geometry" />
        </mxCell>
        <mxCell id="uHYUErBOptb2Cv8OUy0e-130" style="edgeStyle=none;rounded=0;orthogonalLoop=1;jettySize=auto;html=1;strokeColor=#FF00FF;fontColor=#FF0000;startArrow=classic;startFill=1;endArrow=classic;endFill=1;" edge="1" parent="uHYUErBOptb2Cv8OUy0e-94" source="uHYUErBOptb2Cv8OUy0e-131" target="uHYUErBOptb2Cv8OUy0e-118">
          <mxGeometry relative="1" as="geometry" />
        </mxCell>
        <mxCell id="uHYUErBOptb2Cv8OUy0e-131" value="" style="shape=trapezoid;perimeter=trapezoidPerimeter;whiteSpace=wrap;html=1;fixedSize=1;flipV=0;flipH=0;fillColor=#ffe6cc;strokeColor=#d79b00;" vertex="1" parent="uHYUErBOptb2Cv8OUy0e-94">
          <mxGeometry x="33.379999999999995" y="220" width="103.25" height="30" as="geometry" />
        </mxCell>
        <mxCell id="uHYUErBOptb2Cv8OUy0e-132" style="rounded=0;orthogonalLoop=1;jettySize=auto;html=1;strokeColor=#FF00FF;fontColor=#FF0000;startArrow=classic;startFill=1;endArrow=classic;endFill=1;" edge="1" parent="uHYUErBOptb2Cv8OUy0e-94" source="uHYUErBOptb2Cv8OUy0e-135" target="uHYUErBOptb2Cv8OUy0e-107">
          <mxGeometry relative="1" as="geometry" />
        </mxCell>
        <mxCell id="uHYUErBOptb2Cv8OUy0e-133" style="edgeStyle=none;rounded=0;orthogonalLoop=1;jettySize=auto;html=1;strokeColor=#FF00FF;fontColor=#FF0000;startArrow=classic;startFill=1;endArrow=classic;endFill=1;" edge="1" parent="uHYUErBOptb2Cv8OUy0e-94" source="uHYUErBOptb2Cv8OUy0e-135" target="uHYUErBOptb2Cv8OUy0e-96">
          <mxGeometry relative="1" as="geometry" />
        </mxCell>
        <mxCell id="uHYUErBOptb2Cv8OUy0e-134" style="edgeStyle=none;rounded=0;orthogonalLoop=1;jettySize=auto;html=1;strokeColor=#FF00FF;fontColor=#FF0000;startArrow=classic;startFill=1;endArrow=classic;endFill=1;" edge="1" parent="uHYUErBOptb2Cv8OUy0e-94" source="uHYUErBOptb2Cv8OUy0e-135" target="uHYUErBOptb2Cv8OUy0e-118">
          <mxGeometry relative="1" as="geometry" />
        </mxCell>
        <mxCell id="uHYUErBOptb2Cv8OUy0e-135" value="" style="shape=trapezoid;perimeter=trapezoidPerimeter;whiteSpace=wrap;html=1;fixedSize=1;flipV=0;flipH=0;fillColor=#ffe6cc;strokeColor=#d79b00;" vertex="1" parent="uHYUErBOptb2Cv8OUy0e-94">
          <mxGeometry x="198.38" y="220" width="103.25" height="30" as="geometry" />
        </mxCell>
        <mxCell id="uHYUErBOptb2Cv8OUy0e-136" style="edgeStyle=none;rounded=0;orthogonalLoop=1;jettySize=auto;html=1;strokeColor=#FF00FF;fontColor=#FF0000;startArrow=classic;startFill=1;endArrow=classic;endFill=1;" edge="1" parent="uHYUErBOptb2Cv8OUy0e-94" source="uHYUErBOptb2Cv8OUy0e-139" target="uHYUErBOptb2Cv8OUy0e-107">
          <mxGeometry relative="1" as="geometry" />
        </mxCell>
        <mxCell id="uHYUErBOptb2Cv8OUy0e-137" style="edgeStyle=none;rounded=0;orthogonalLoop=1;jettySize=auto;html=1;strokeColor=#FF00FF;fontColor=#FF0000;startArrow=classic;startFill=1;endArrow=classic;endFill=1;" edge="1" parent="uHYUErBOptb2Cv8OUy0e-94" source="uHYUErBOptb2Cv8OUy0e-139" target="uHYUErBOptb2Cv8OUy0e-118">
          <mxGeometry relative="1" as="geometry" />
        </mxCell>
        <mxCell id="uHYUErBOptb2Cv8OUy0e-138" style="edgeStyle=none;rounded=0;orthogonalLoop=1;jettySize=auto;html=1;strokeColor=#FF00FF;fontColor=#FF0000;startArrow=classic;startFill=1;endArrow=classic;endFill=1;" edge="1" parent="uHYUErBOptb2Cv8OUy0e-94" source="uHYUErBOptb2Cv8OUy0e-139" target="uHYUErBOptb2Cv8OUy0e-96">
          <mxGeometry relative="1" as="geometry" />
        </mxCell>
        <mxCell id="uHYUErBOptb2Cv8OUy0e-139" value="" style="shape=trapezoid;perimeter=trapezoidPerimeter;whiteSpace=wrap;html=1;fixedSize=1;flipV=0;flipH=0;fillColor=#ffe6cc;strokeColor=#d79b00;" vertex="1" parent="uHYUErBOptb2Cv8OUy0e-94">
          <mxGeometry x="365" y="220" width="103.25" height="30" as="geometry" />
        </mxCell>
        <mxCell id="uHYUErBOptb2Cv8OUy0e-140" value="Module / Chip" style="swimlane;strokeColor=#9673a6;fontSize=14;fillColor=#e1d5e7;" vertex="1" parent="uHYUErBOptb2Cv8OUy0e-1">
          <mxGeometry x="22.75" y="380" width="506" height="270" as="geometry" />
        </mxCell>
        <mxCell id="uHYUErBOptb2Cv8OUy0e-141" style="edgeStyle=none;rounded=0;orthogonalLoop=1;jettySize=auto;html=1;strokeColor=#FF00FF;fontColor=#FF0000;startArrow=classic;startFill=1;endArrow=classic;endFill=1;" edge="1" parent="uHYUErBOptb2Cv8OUy0e-140" source="uHYUErBOptb2Cv8OUy0e-142" target="uHYUErBOptb2Cv8OUy0e-177">
          <mxGeometry relative="1" as="geometry" />
        </mxCell>
        <mxCell id="uHYUErBOptb2Cv8OUy0e-142" value="Cluster" style="swimlane;strokeColor=#d79b00;fontSize=14;fillColor=#ffe6cc;" vertex="1" parent="uHYUErBOptb2Cv8OUy0e-140">
          <mxGeometry x="20" y="40" width="130" height="150" as="geometry" />
        </mxCell>
        <mxCell id="uHYUErBOptb2Cv8OUy0e-143" style="edgeStyle=none;rounded=0;orthogonalLoop=1;jettySize=auto;html=1;strokeColor=#000000;fontColor=#FF0000;endArrow=classic;endFill=1;startArrow=classic;startFill=1;" edge="1" parent="uHYUErBOptb2Cv8OUy0e-142" source="uHYUErBOptb2Cv8OUy0e-146" target="uHYUErBOptb2Cv8OUy0e-148">
          <mxGeometry relative="1" as="geometry" />
        </mxCell>
        <mxCell id="uHYUErBOptb2Cv8OUy0e-144" style="edgeStyle=none;rounded=0;orthogonalLoop=1;jettySize=auto;html=1;strokeColor=#000000;fontColor=#FF0000;endArrow=classic;endFill=1;startArrow=classic;startFill=1;" edge="1" parent="uHYUErBOptb2Cv8OUy0e-142" source="uHYUErBOptb2Cv8OUy0e-146" target="uHYUErBOptb2Cv8OUy0e-149">
          <mxGeometry relative="1" as="geometry" />
        </mxCell>
        <mxCell id="uHYUErBOptb2Cv8OUy0e-145" style="edgeStyle=none;rounded=0;orthogonalLoop=1;jettySize=auto;html=1;strokeColor=#000000;fontColor=#FF0000;endArrow=classic;endFill=1;startArrow=classic;startFill=1;" edge="1" parent="uHYUErBOptb2Cv8OUy0e-142" source="uHYUErBOptb2Cv8OUy0e-146" target="uHYUErBOptb2Cv8OUy0e-152">
          <mxGeometry relative="1" as="geometry" />
        </mxCell>
        <mxCell id="uHYUErBOptb2Cv8OUy0e-146" value="EP" style="whiteSpace=wrap;html=1;aspect=fixed;strokeColor=#b85450;fontSize=14;fillColor=#f8cecc;" vertex="1" parent="uHYUErBOptb2Cv8OUy0e-142">
          <mxGeometry x="19.5" y="40" width="35" height="35" as="geometry" />
        </mxCell>
        <mxCell id="uHYUErBOptb2Cv8OUy0e-147" style="edgeStyle=none;rounded=0;orthogonalLoop=1;jettySize=auto;html=1;strokeColor=#000000;fontColor=#FF0000;endArrow=classic;endFill=1;startArrow=classic;startFill=1;" edge="1" parent="uHYUErBOptb2Cv8OUy0e-142" source="uHYUErBOptb2Cv8OUy0e-148" target="uHYUErBOptb2Cv8OUy0e-149">
          <mxGeometry relative="1" as="geometry" />
        </mxCell>
        <mxCell id="uHYUErBOptb2Cv8OUy0e-148" value="EP" style="whiteSpace=wrap;html=1;aspect=fixed;strokeColor=#b85450;fontSize=14;fillColor=#f8cecc;" vertex="1" parent="uHYUErBOptb2Cv8OUy0e-142">
          <mxGeometry x="75.5" y="40" width="35" height="35" as="geometry" />
        </mxCell>
        <mxCell id="uHYUErBOptb2Cv8OUy0e-149" value="EP" style="whiteSpace=wrap;html=1;aspect=fixed;strokeColor=#b85450;fontSize=14;fillColor=#f8cecc;" vertex="1" parent="uHYUErBOptb2Cv8OUy0e-142">
          <mxGeometry x="19.5" y="100" width="35" height="35" as="geometry" />
        </mxCell>
        <mxCell id="uHYUErBOptb2Cv8OUy0e-150" style="edgeStyle=none;rounded=0;orthogonalLoop=1;jettySize=auto;html=1;strokeColor=#000000;fontColor=#FF0000;endArrow=classic;endFill=1;startArrow=classic;startFill=1;" edge="1" parent="uHYUErBOptb2Cv8OUy0e-142" source="uHYUErBOptb2Cv8OUy0e-152" target="uHYUErBOptb2Cv8OUy0e-148">
          <mxGeometry relative="1" as="geometry" />
        </mxCell>
        <mxCell id="uHYUErBOptb2Cv8OUy0e-151" style="edgeStyle=none;rounded=0;orthogonalLoop=1;jettySize=auto;html=1;strokeColor=#000000;fontColor=#FF0000;endArrow=classic;endFill=1;startArrow=classic;startFill=1;" edge="1" parent="uHYUErBOptb2Cv8OUy0e-142" source="uHYUErBOptb2Cv8OUy0e-152" target="uHYUErBOptb2Cv8OUy0e-149">
          <mxGeometry relative="1" as="geometry" />
        </mxCell>
        <mxCell id="uHYUErBOptb2Cv8OUy0e-152" value="EP" style="whiteSpace=wrap;html=1;aspect=fixed;strokeColor=#b85450;fontSize=14;fillColor=#f8cecc;" vertex="1" parent="uHYUErBOptb2Cv8OUy0e-142">
          <mxGeometry x="75.5" y="100" width="35" height="35" as="geometry" />
        </mxCell>
        <mxCell id="uHYUErBOptb2Cv8OUy0e-153" value="Cluster" style="swimlane;strokeColor=#d79b00;fontSize=14;fillColor=#ffe6cc;" vertex="1" parent="uHYUErBOptb2Cv8OUy0e-140">
          <mxGeometry x="185" y="40" width="130" height="150" as="geometry" />
        </mxCell>
        <mxCell id="uHYUErBOptb2Cv8OUy0e-154" style="edgeStyle=none;rounded=0;orthogonalLoop=1;jettySize=auto;html=1;strokeColor=#000000;fontColor=#FF0000;endArrow=classic;endFill=1;startArrow=classic;startFill=1;" edge="1" parent="uHYUErBOptb2Cv8OUy0e-153" source="uHYUErBOptb2Cv8OUy0e-157" target="uHYUErBOptb2Cv8OUy0e-159">
          <mxGeometry relative="1" as="geometry" />
        </mxCell>
        <mxCell id="uHYUErBOptb2Cv8OUy0e-155" style="edgeStyle=none;rounded=0;orthogonalLoop=1;jettySize=auto;html=1;strokeColor=#000000;fontColor=#FF0000;endArrow=classic;endFill=1;startArrow=classic;startFill=1;" edge="1" parent="uHYUErBOptb2Cv8OUy0e-153" source="uHYUErBOptb2Cv8OUy0e-157" target="uHYUErBOptb2Cv8OUy0e-160">
          <mxGeometry relative="1" as="geometry" />
        </mxCell>
        <mxCell id="uHYUErBOptb2Cv8OUy0e-156" style="edgeStyle=none;rounded=0;orthogonalLoop=1;jettySize=auto;html=1;strokeColor=#000000;fontColor=#FF0000;endArrow=classic;endFill=1;startArrow=classic;startFill=1;" edge="1" parent="uHYUErBOptb2Cv8OUy0e-153" source="uHYUErBOptb2Cv8OUy0e-157" target="uHYUErBOptb2Cv8OUy0e-163">
          <mxGeometry relative="1" as="geometry" />
        </mxCell>
        <mxCell id="uHYUErBOptb2Cv8OUy0e-157" value="EP" style="whiteSpace=wrap;html=1;aspect=fixed;strokeColor=#b85450;fontSize=14;fillColor=#f8cecc;" vertex="1" parent="uHYUErBOptb2Cv8OUy0e-153">
          <mxGeometry x="19" y="40" width="35" height="35" as="geometry" />
        </mxCell>
        <mxCell id="uHYUErBOptb2Cv8OUy0e-158" style="edgeStyle=none;rounded=0;orthogonalLoop=1;jettySize=auto;html=1;strokeColor=#000000;fontColor=#FF0000;endArrow=classic;endFill=1;startArrow=classic;startFill=1;" edge="1" parent="uHYUErBOptb2Cv8OUy0e-153" source="uHYUErBOptb2Cv8OUy0e-159" target="uHYUErBOptb2Cv8OUy0e-160">
          <mxGeometry relative="1" as="geometry" />
        </mxCell>
        <mxCell id="uHYUErBOptb2Cv8OUy0e-159" value="EP" style="whiteSpace=wrap;html=1;aspect=fixed;strokeColor=#b85450;fontSize=14;fillColor=#f8cecc;" vertex="1" parent="uHYUErBOptb2Cv8OUy0e-153">
          <mxGeometry x="75" y="40" width="35" height="35" as="geometry" />
        </mxCell>
        <mxCell id="uHYUErBOptb2Cv8OUy0e-160" value="EP" style="whiteSpace=wrap;html=1;aspect=fixed;strokeColor=#b85450;fontSize=14;fillColor=#f8cecc;" vertex="1" parent="uHYUErBOptb2Cv8OUy0e-153">
          <mxGeometry x="19" y="100" width="35" height="35" as="geometry" />
        </mxCell>
        <mxCell id="uHYUErBOptb2Cv8OUy0e-161" style="edgeStyle=none;rounded=0;orthogonalLoop=1;jettySize=auto;html=1;strokeColor=#000000;fontColor=#FF0000;endArrow=classic;endFill=1;startArrow=classic;startFill=1;" edge="1" parent="uHYUErBOptb2Cv8OUy0e-153" source="uHYUErBOptb2Cv8OUy0e-163" target="uHYUErBOptb2Cv8OUy0e-159">
          <mxGeometry relative="1" as="geometry" />
        </mxCell>
        <mxCell id="uHYUErBOptb2Cv8OUy0e-162" style="edgeStyle=none;rounded=0;orthogonalLoop=1;jettySize=auto;html=1;strokeColor=#000000;fontColor=#FF0000;endArrow=classic;endFill=1;startArrow=classic;startFill=1;" edge="1" parent="uHYUErBOptb2Cv8OUy0e-153" source="uHYUErBOptb2Cv8OUy0e-163" target="uHYUErBOptb2Cv8OUy0e-160">
          <mxGeometry relative="1" as="geometry" />
        </mxCell>
        <mxCell id="uHYUErBOptb2Cv8OUy0e-163" value="EP" style="whiteSpace=wrap;html=1;aspect=fixed;strokeColor=#b85450;fontSize=14;fillColor=#f8cecc;" vertex="1" parent="uHYUErBOptb2Cv8OUy0e-153">
          <mxGeometry x="75" y="100" width="35" height="35" as="geometry" />
        </mxCell>
        <mxCell id="uHYUErBOptb2Cv8OUy0e-164" value="Cluster" style="swimlane;strokeColor=#d79b00;fontSize=14;fillColor=#ffe6cc;" vertex="1" parent="uHYUErBOptb2Cv8OUy0e-140">
          <mxGeometry x="355" y="40" width="130" height="150" as="geometry" />
        </mxCell>
        <mxCell id="uHYUErBOptb2Cv8OUy0e-165" style="edgeStyle=none;rounded=0;orthogonalLoop=1;jettySize=auto;html=1;strokeColor=#000000;fontColor=#FF0000;endArrow=classic;endFill=1;startArrow=classic;startFill=1;" edge="1" parent="uHYUErBOptb2Cv8OUy0e-164" source="uHYUErBOptb2Cv8OUy0e-168" target="uHYUErBOptb2Cv8OUy0e-170">
          <mxGeometry relative="1" as="geometry" />
        </mxCell>
        <mxCell id="uHYUErBOptb2Cv8OUy0e-166" style="edgeStyle=none;rounded=0;orthogonalLoop=1;jettySize=auto;html=1;strokeColor=#000000;fontColor=#FF0000;endArrow=classic;endFill=1;startArrow=classic;startFill=1;" edge="1" parent="uHYUErBOptb2Cv8OUy0e-164" source="uHYUErBOptb2Cv8OUy0e-168" target="uHYUErBOptb2Cv8OUy0e-171">
          <mxGeometry relative="1" as="geometry" />
        </mxCell>
        <mxCell id="uHYUErBOptb2Cv8OUy0e-167" style="edgeStyle=none;rounded=0;orthogonalLoop=1;jettySize=auto;html=1;strokeColor=#000000;fontColor=#FF0000;endArrow=classic;endFill=1;startArrow=classic;startFill=1;" edge="1" parent="uHYUErBOptb2Cv8OUy0e-164" source="uHYUErBOptb2Cv8OUy0e-168" target="uHYUErBOptb2Cv8OUy0e-174">
          <mxGeometry relative="1" as="geometry" />
        </mxCell>
        <mxCell id="uHYUErBOptb2Cv8OUy0e-168" value="EP" style="whiteSpace=wrap;html=1;aspect=fixed;strokeColor=#b85450;fontSize=14;fillColor=#f8cecc;" vertex="1" parent="uHYUErBOptb2Cv8OUy0e-164">
          <mxGeometry x="19" y="40" width="35" height="35" as="geometry" />
        </mxCell>
        <mxCell id="uHYUErBOptb2Cv8OUy0e-169" style="edgeStyle=none;rounded=0;orthogonalLoop=1;jettySize=auto;html=1;strokeColor=#000000;fontColor=#FF0000;endArrow=classic;endFill=1;startArrow=classic;startFill=1;" edge="1" parent="uHYUErBOptb2Cv8OUy0e-164" source="uHYUErBOptb2Cv8OUy0e-170" target="uHYUErBOptb2Cv8OUy0e-171">
          <mxGeometry relative="1" as="geometry" />
        </mxCell>
        <mxCell id="uHYUErBOptb2Cv8OUy0e-170" value="EP" style="whiteSpace=wrap;html=1;aspect=fixed;strokeColor=#b85450;fontSize=14;fillColor=#f8cecc;" vertex="1" parent="uHYUErBOptb2Cv8OUy0e-164">
          <mxGeometry x="75" y="40" width="35" height="35" as="geometry" />
        </mxCell>
        <mxCell id="uHYUErBOptb2Cv8OUy0e-171" value="EP" style="whiteSpace=wrap;html=1;aspect=fixed;strokeColor=#b85450;fontSize=14;fillColor=#f8cecc;" vertex="1" parent="uHYUErBOptb2Cv8OUy0e-164">
          <mxGeometry x="19" y="100" width="35" height="35" as="geometry" />
        </mxCell>
        <mxCell id="uHYUErBOptb2Cv8OUy0e-172" style="edgeStyle=none;rounded=0;orthogonalLoop=1;jettySize=auto;html=1;strokeColor=#000000;fontColor=#FF0000;endArrow=classic;endFill=1;startArrow=classic;startFill=1;" edge="1" parent="uHYUErBOptb2Cv8OUy0e-164" source="uHYUErBOptb2Cv8OUy0e-174" target="uHYUErBOptb2Cv8OUy0e-170">
          <mxGeometry relative="1" as="geometry" />
        </mxCell>
        <mxCell id="uHYUErBOptb2Cv8OUy0e-173" style="edgeStyle=none;rounded=0;orthogonalLoop=1;jettySize=auto;html=1;strokeColor=#000000;fontColor=#FF0000;endArrow=classic;endFill=1;startArrow=classic;startFill=1;" edge="1" parent="uHYUErBOptb2Cv8OUy0e-164" source="uHYUErBOptb2Cv8OUy0e-174" target="uHYUErBOptb2Cv8OUy0e-171">
          <mxGeometry relative="1" as="geometry" />
        </mxCell>
        <mxCell id="uHYUErBOptb2Cv8OUy0e-174" value="EP" style="whiteSpace=wrap;html=1;aspect=fixed;strokeColor=#b85450;fontSize=14;fillColor=#f8cecc;" vertex="1" parent="uHYUErBOptb2Cv8OUy0e-164">
          <mxGeometry x="75" y="100" width="35" height="35" as="geometry" />
        </mxCell>
        <mxCell id="uHYUErBOptb2Cv8OUy0e-175" style="edgeStyle=none;rounded=0;orthogonalLoop=1;jettySize=auto;html=1;strokeColor=#FF00FF;fontColor=#FF0000;startArrow=classic;startFill=1;endArrow=classic;endFill=1;" edge="1" parent="uHYUErBOptb2Cv8OUy0e-140" source="uHYUErBOptb2Cv8OUy0e-177" target="uHYUErBOptb2Cv8OUy0e-153">
          <mxGeometry relative="1" as="geometry" />
        </mxCell>
        <mxCell id="uHYUErBOptb2Cv8OUy0e-176" style="edgeStyle=none;rounded=0;orthogonalLoop=1;jettySize=auto;html=1;strokeColor=#FF00FF;fontColor=#FF0000;startArrow=classic;startFill=1;endArrow=classic;endFill=1;" edge="1" parent="uHYUErBOptb2Cv8OUy0e-140" source="uHYUErBOptb2Cv8OUy0e-177" target="uHYUErBOptb2Cv8OUy0e-164">
          <mxGeometry relative="1" as="geometry" />
        </mxCell>
        <mxCell id="uHYUErBOptb2Cv8OUy0e-177" value="" style="shape=trapezoid;perimeter=trapezoidPerimeter;whiteSpace=wrap;html=1;fixedSize=1;flipV=0;flipH=0;fillColor=#ffe6cc;strokeColor=#d79b00;" vertex="1" parent="uHYUErBOptb2Cv8OUy0e-140">
          <mxGeometry x="33.379999999999995" y="220" width="103.25" height="30" as="geometry" />
        </mxCell>
        <mxCell id="uHYUErBOptb2Cv8OUy0e-178" style="rounded=0;orthogonalLoop=1;jettySize=auto;html=1;strokeColor=#FF00FF;fontColor=#FF0000;startArrow=classic;startFill=1;endArrow=classic;endFill=1;" edge="1" parent="uHYUErBOptb2Cv8OUy0e-140" source="uHYUErBOptb2Cv8OUy0e-181" target="uHYUErBOptb2Cv8OUy0e-153">
          <mxGeometry relative="1" as="geometry" />
        </mxCell>
        <mxCell id="uHYUErBOptb2Cv8OUy0e-179" style="edgeStyle=none;rounded=0;orthogonalLoop=1;jettySize=auto;html=1;strokeColor=#FF00FF;fontColor=#FF0000;startArrow=classic;startFill=1;endArrow=classic;endFill=1;" edge="1" parent="uHYUErBOptb2Cv8OUy0e-140" source="uHYUErBOptb2Cv8OUy0e-181" target="uHYUErBOptb2Cv8OUy0e-142">
          <mxGeometry relative="1" as="geometry" />
        </mxCell>
        <mxCell id="uHYUErBOptb2Cv8OUy0e-180" style="edgeStyle=none;rounded=0;orthogonalLoop=1;jettySize=auto;html=1;strokeColor=#FF00FF;fontColor=#FF0000;startArrow=classic;startFill=1;endArrow=classic;endFill=1;" edge="1" parent="uHYUErBOptb2Cv8OUy0e-140" source="uHYUErBOptb2Cv8OUy0e-181" target="uHYUErBOptb2Cv8OUy0e-164">
          <mxGeometry relative="1" as="geometry" />
        </mxCell>
        <mxCell id="uHYUErBOptb2Cv8OUy0e-181" value="" style="shape=trapezoid;perimeter=trapezoidPerimeter;whiteSpace=wrap;html=1;fixedSize=1;flipV=0;flipH=0;fillColor=#ffe6cc;strokeColor=#d79b00;" vertex="1" parent="uHYUErBOptb2Cv8OUy0e-140">
          <mxGeometry x="198.38" y="220" width="103.25" height="30" as="geometry" />
        </mxCell>
        <mxCell id="uHYUErBOptb2Cv8OUy0e-182" style="edgeStyle=none;rounded=0;orthogonalLoop=1;jettySize=auto;html=1;strokeColor=#FF00FF;fontColor=#FF0000;startArrow=classic;startFill=1;endArrow=classic;endFill=1;" edge="1" parent="uHYUErBOptb2Cv8OUy0e-140" source="uHYUErBOptb2Cv8OUy0e-185" target="uHYUErBOptb2Cv8OUy0e-153">
          <mxGeometry relative="1" as="geometry" />
        </mxCell>
        <mxCell id="uHYUErBOptb2Cv8OUy0e-183" style="edgeStyle=none;rounded=0;orthogonalLoop=1;jettySize=auto;html=1;strokeColor=#FF00FF;fontColor=#FF0000;startArrow=classic;startFill=1;endArrow=classic;endFill=1;" edge="1" parent="uHYUErBOptb2Cv8OUy0e-140" source="uHYUErBOptb2Cv8OUy0e-185" target="uHYUErBOptb2Cv8OUy0e-164">
          <mxGeometry relative="1" as="geometry" />
        </mxCell>
        <mxCell id="uHYUErBOptb2Cv8OUy0e-184" style="edgeStyle=none;rounded=0;orthogonalLoop=1;jettySize=auto;html=1;strokeColor=#FF00FF;fontColor=#FF0000;startArrow=classic;startFill=1;endArrow=classic;endFill=1;" edge="1" parent="uHYUErBOptb2Cv8OUy0e-140" source="uHYUErBOptb2Cv8OUy0e-185" target="uHYUErBOptb2Cv8OUy0e-142">
          <mxGeometry relative="1" as="geometry" />
        </mxCell>
        <mxCell id="uHYUErBOptb2Cv8OUy0e-185" value="" style="shape=trapezoid;perimeter=trapezoidPerimeter;whiteSpace=wrap;html=1;fixedSize=1;flipV=0;flipH=0;fillColor=#ffe6cc;strokeColor=#d79b00;" vertex="1" parent="uHYUErBOptb2Cv8OUy0e-140">
          <mxGeometry x="365" y="220" width="103.25" height="30" as="geometry" />
        </mxCell>
        <mxCell id="uHYUErBOptb2Cv8OUy0e-186" style="edgeStyle=none;rounded=0;orthogonalLoop=1;jettySize=auto;html=1;strokeColor=#FF3399;fontColor=#FF0000;startArrow=classic;startFill=1;endArrow=classic;endFill=1;strokeWidth=2;" edge="1" parent="uHYUErBOptb2Cv8OUy0e-1" source="uHYUErBOptb2Cv8OUy0e-190" target="uHYUErBOptb2Cv8OUy0e-2">
          <mxGeometry relative="1" as="geometry" />
        </mxCell>
        <mxCell id="uHYUErBOptb2Cv8OUy0e-187" style="edgeStyle=none;rounded=0;orthogonalLoop=1;jettySize=auto;html=1;strokeColor=#FF3399;fontColor=#FF0000;startArrow=classic;startFill=1;endArrow=classic;endFill=1;strokeWidth=2;" edge="1" parent="uHYUErBOptb2Cv8OUy0e-1" source="uHYUErBOptb2Cv8OUy0e-190" target="uHYUErBOptb2Cv8OUy0e-140">
          <mxGeometry relative="1" as="geometry" />
        </mxCell>
        <mxCell id="uHYUErBOptb2Cv8OUy0e-188" style="edgeStyle=none;rounded=0;orthogonalLoop=1;jettySize=auto;html=1;strokeColor=#FF3399;fontColor=#FF0000;startArrow=classic;startFill=1;endArrow=classic;endFill=1;strokeWidth=2;" edge="1" parent="uHYUErBOptb2Cv8OUy0e-1" source="uHYUErBOptb2Cv8OUy0e-190" target="uHYUErBOptb2Cv8OUy0e-94">
          <mxGeometry relative="1" as="geometry" />
        </mxCell>
        <mxCell id="uHYUErBOptb2Cv8OUy0e-189" style="edgeStyle=none;rounded=0;orthogonalLoop=1;jettySize=auto;html=1;strokeColor=#FF3399;fontColor=#FF0000;startArrow=classic;startFill=1;endArrow=classic;endFill=1;strokeWidth=2;" edge="1" parent="uHYUErBOptb2Cv8OUy0e-1" source="uHYUErBOptb2Cv8OUy0e-190" target="uHYUErBOptb2Cv8OUy0e-48">
          <mxGeometry relative="1" as="geometry" />
        </mxCell>
        <mxCell id="uHYUErBOptb2Cv8OUy0e-190" value="interconnect" style="shape=hexagon;perimeter=hexagonPerimeter2;whiteSpace=wrap;html=1;fixedSize=1;fontColor=#FF3399;strokeColor=#FF3399;fontSize=16;fontStyle=1;strokeWidth=4;" vertex="1" parent="uHYUErBOptb2Cv8OUy0e-1">
          <mxGeometry x="420" y="330" width="270" height="30" as="geometry" />
        </mxCell>
        <mxCell id="uHYUErBOptb2Cv8OUy0e-191" style="edgeStyle=none;rounded=0;orthogonalLoop=1;jettySize=auto;html=1;exitX=1;exitY=0.5;exitDx=0;exitDy=0;strokeColor=#FF3399;fontSize=14;fontColor=#FF3399;startArrow=classic;startFill=1;endArrow=classic;endFill=1;shape=flexArrow;" edge="1" parent="1" source="uHYUErBOptb2Cv8OUy0e-48">
          <mxGeometry relative="1" as="geometry">
            <mxPoint x="2006" y="830" as="targetPoint" />
          </mxGeometry>
        </mxCell>
        <mxCell id="uHYUErBOptb2Cv8OUy0e-192" style="edgeStyle=none;rounded=0;orthogonalLoop=1;jettySize=auto;html=1;exitX=1;exitY=0.5;exitDx=0;exitDy=0;strokeColor=#FF3399;fontSize=14;fontColor=#FF3399;startArrow=classic;startFill=1;endArrow=classic;endFill=1;shape=flexArrow;" edge="1" parent="1" source="uHYUErBOptb2Cv8OUy0e-94">
          <mxGeometry relative="1" as="geometry">
            <mxPoint x="2003" y="1170" as="targetPoint" />
          </mxGeometry>
        </mxCell>
        <mxCell id="uHYUErBOptb2Cv8OUy0e-193" style="edgeStyle=none;rounded=0;orthogonalLoop=1;jettySize=auto;html=1;exitX=0;exitY=0.5;exitDx=0;exitDy=0;strokeColor=#FF3399;fontSize=14;fontColor=#FF3399;startArrow=classic;startFill=1;endArrow=classic;endFill=1;shape=flexArrow;" edge="1" parent="1" source="uHYUErBOptb2Cv8OUy0e-2">
          <mxGeometry relative="1" as="geometry">
            <mxPoint x="817.5882352941176" y="829.6470588235297" as="targetPoint" />
          </mxGeometry>
        </mxCell>
        <mxCell id="uHYUErBOptb2Cv8OUy0e-194" style="edgeStyle=none;rounded=0;orthogonalLoop=1;jettySize=auto;html=1;exitX=0;exitY=0.5;exitDx=0;exitDy=0;strokeColor=#FF3399;fontSize=14;fontColor=#FF3399;startArrow=classic;startFill=1;endArrow=classic;endFill=1;shape=flexArrow;" edge="1" parent="1" source="uHYUErBOptb2Cv8OUy0e-140">
          <mxGeometry relative="1" as="geometry">
            <mxPoint x="818.7647058823532" y="1169.6470588235293" as="targetPoint" />
          </mxGeometry>
        </mxCell>
        <mxCell id="uHYUErBOptb2Cv8OUy0e-195" value="inout" style="text;html=1;strokeColor=none;fillColor=none;align=center;verticalAlign=middle;whiteSpace=wrap;rounded=0;fontSize=16;fontColor=#FF3399;fontStyle=0" vertex="1" parent="1">
          <mxGeometry x="1966" y="850" width="48" height="30" as="geometry" />
        </mxCell>
        <mxCell id="uHYUErBOptb2Cv8OUy0e-196" value="inout" style="text;html=1;strokeColor=none;fillColor=none;align=center;verticalAlign=middle;whiteSpace=wrap;rounded=0;fontSize=16;fontColor=#FF3399;fontStyle=0" vertex="1" parent="1">
          <mxGeometry x="1966" y="1189" width="48" height="30" as="geometry" />
        </mxCell>
        <mxCell id="uHYUErBOptb2Cv8OUy0e-197" value="inout" style="text;html=1;strokeColor=none;fillColor=none;align=center;verticalAlign=middle;whiteSpace=wrap;rounded=0;fontSize=16;fontColor=#FF3399;fontStyle=0" vertex="1" parent="1">
          <mxGeometry x="803" y="1115" width="48" height="30" as="geometry" />
        </mxCell>
        <mxCell id="uHYUErBOptb2Cv8OUy0e-198" value="inout" style="text;html=1;strokeColor=none;fillColor=none;align=center;verticalAlign=middle;whiteSpace=wrap;rounded=0;fontSize=16;fontColor=#FF3399;fontStyle=0" vertex="1" parent="1">
          <mxGeometry x="803" y="783" width="48" height="30" as="geometry" />
        </mxCell>
      </root>
    </mxGraphModel>
  </diagram>
</mxfile>
